<?xml version="1.0" standalone="no"?>
<!DOCTYPE svg PUBLIC "-//W3C//DTD SVG 20010904//EN"
 "http://www.w3.org/TR/2001/REC-SVG-20010904/DTD/svg10.dtd">
<svg version="1.0" xmlns="http://www.w3.org/2000/svg"
 width="700.000000pt" height="700.000000pt" viewBox="0 0 700.000000 700.000000"
 preserveAspectRatio="xMidYMid meet">
<metadata>
Created by potrace 1.14, written by Peter Selinger 2001-2017
</metadata>
<g transform="translate(0.000000,700.000000) scale(0.100000,-0.100000)"
fill="#000000" stroke="none">
<path d="M3278 6995 c-1 -1 -43 -6 -91 -10 -48 -3 -96 -8 -105 -10 -9 -1 -39
-6 -67 -9 -27 -4 -86 -14 -130 -22 -44 -9 -93 -18 -110 -20 -65 -11 -296 -75
-410 -114 -115 -40 -134 -47 -217 -84 -20 -9 -39 -16 -42 -16 -11 0 -281 -136
-357 -180 -153 -89 -426 -280 -498 -348 -10 -9 -51 -46 -91 -82 -319 -283
-592 -641 -786 -1030 -116 -233 -208 -480 -268 -716 -27 -109 -56 -256 -72
-373 -3 -25 -8 -57 -10 -71 -19 -118 -25 -556 -11 -715 7 -68 13 -120 42 -315
19 -133 142 -566 189 -665 8 -16 24 -54 35 -83 11 -29 51 -112 87 -185 186
-371 409 -678 699 -958 79 -76 123 -116 225 -203 63 -54 276 -206 352 -251
324 -193 574 -305 884 -395 170 -50 316 -80 529 -111 220 -31 668 -33 875 -3
619 90 1125 287 1601 625 88 62 240 182 288 227 431 402 700 780 911 1276 69
163 169 482 194 618 2 13 11 61 20 108 35 188 49 348 51 580 1 129 -2 271 -6
315 -14 150 -26 247 -34 275 -2 8 -7 35 -10 60 -4 25 -11 65 -17 90 -5 25 -12
56 -14 70 -8 43 -54 211 -86 310 -59 185 -185 475 -274 630 -109 190 -208 335
-332 488 -94 117 -84 106 -212 237 -484 500 -1115 849 -1787 990 -100 20 -251
44 -393 60 -57 7 -546 16 -552 10z m192 -1029 c30 -4 73 -9 95 -12 35 -4 84
-12 182 -30 40 -7 290 -91 338 -113 22 -10 97 -44 167 -76 70 -31 132 -63 139
-71 6 -8 15 -14 19 -14 15 0 227 -146 290 -200 121 -104 152 -135 218 -225 37
-49 69 -92 72 -95 3 -3 38 -54 77 -115 113 -175 182 -325 293 -635 24 -65 110
-396 128 -490 19 -95 24 -127 38 -210 2 -14 9 -47 14 -73 6 -26 10 -61 10 -77
0 -33 16 -45 75 -54 34 -6 508 -98 571 -111 15 -3 23 -14 27 -37 2 -18 2 -38
0 -44 -3 -9 -123 -12 -437 -12 l-433 0 -12 87 c-84 586 -173 917 -337 1261
-112 233 -242 420 -408 585 -120 119 -143 139 -254 216 -203 142 -547 273
-797 303 -27 4 -63 9 -80 11 -79 12 -144 15 -320 16 -104 0 -206 -2 -225 -5
-19 -3 -59 -7 -88 -11 -287 -30 -584 -129 -814 -272 -399 -247 -683 -639 -874
-1210 -33 -99 -88 -302 -99 -366 -4 -18 -12 -61 -20 -97 -8 -36 -22 -110 -30
-165 -9 -55 -18 -110 -20 -122 -2 -12 -9 -57 -15 -100 -6 -43 -13 -87 -15 -98
-2 -11 -4 -23 -4 -26 -1 -4 -53 -7 -116 -7 l-116 1 6 61 c3 34 7 68 10 76 2 8
7 40 10 70 3 30 8 62 10 70 2 8 6 31 9 50 33 210 70 387 118 560 106 385 208
628 362 865 83 126 228 319 250 332 7 5 39 31 71 58 32 28 67 58 79 68 73 64
319 211 456 274 291 133 483 185 780 212 94 8 526 6 600 -3z m-470 -971 c119
-22 262 -81 360 -148 70 -48 185 -171 235 -251 90 -145 135 -317 130 -496 -8
-251 -119 -474 -318 -642 -65 -54 -191 -123 -267 -147 -136 -42 -140 -43 -633
-46 -263 -1 -480 -5 -483 -7 -2 -3 -5 -328 -7 -724 l-2 -719 -127 -3 -128 -3
-1 38 c-3 232 2 3147 6 3153 6 10 1182 5 1235 -5z m1516 -1455 c1 -806 2
-1468 3 -1471 1 -4 373 -7 829 -7 455 0 839 -1 855 -1 l27 -1 0 -125 0 -125
-985 0 -985 0 0 1600 0 1601 127 -3 128 -3 1 -1465z"/>
<path d="M2043 4752 l-23 -3 0 -280 c-1 -153 -1 -328 -1 -389 0 -60 0 -214 1
-340 l0 -230 453 0 c509 1 523 2 667 72 208 100 330 305 328 551 0 169 -54
307 -162 420 -100 105 -216 167 -361 193 -39 7 -858 12 -902 6z"/>
</g>
</svg>
